<svg width="200" height="200" viewBox="0 0 200 200" fill="none" xmlns="http://www.w3.org/2000/svg">
<path d="M162.947 77.3291L106.356 98.5973C102.898 99.8753 97.0595 99.8753 93.6012 98.5973L37.0104 77.3291C33.5842 76.0187 30.793 71.9797 30.793 68.3289V50.3502C30.793 48.6623 31.3961 47.298 32.4901 46.5107C33.5895 45.7234 35.0624 45.5994 36.6475 46.1602L85.975 63.6482C89.7054 64.9694 95.9227 66.0371 99.8239 66.0371H100.176C104.099 66.0371 110.295 64.9694 113.982 63.6482L163.31 46.1602C164.895 45.5994 166.368 45.7234 167.467 46.5107C168.561 47.298 169.164 48.6623 169.164 50.3502V68.3289C169.164 71.9959 166.373 76.0349 162.947 77.3291ZM32.4795 112.958C33.1305 112.488 33.9097 112.257 34.7636 112.257C35.3613 112.257 35.9964 112.37 36.6475 112.602L85.975 130.047C89.7054 131.362 95.9227 132.435 99.8239 132.435H100.176C104.099 132.435 110.295 131.362 113.982 130.047L163.31 112.602C164.895 112.041 166.373 112.165 167.478 112.958C168.561 113.734 169.164 115.082 169.164 116.749V134.727C169.164 138.432 166.378 142.471 162.947 143.727L106.351 164.996C102.898 166.317 97.0595 166.317 93.6066 164.996L37.005 143.722C33.6375 142.476 30.793 138.356 30.793 134.727V116.749C30.793 115.082 31.3961 113.734 32.4795 112.958ZM193.628 13.6917L183.723 7.81925C180.281 5.73773 174.394 5.25779 170.6 6.75153L106.303 32.0749C102.812 33.45 97.1395 33.45 93.6546 32.0749L29.3575 6.75153C25.5897 5.26858 19.7033 5.74312 16.2397 7.81925L6.32939 13.6917C2.83915 15.7786 0 20.8261 0 24.9352V143.539C0 147.605 1.63838 153.671 3.65034 157.058L4.13064 157.899C6.1426 161.415 10.8069 165.465 14.5106 166.926L86.0337 196.164C89.6521 197.637 95.8373 198.834 99.8239 198.834H100.176C104.136 198.834 110.305 197.637 113.918 196.164L185.484 166.926C189.177 165.454 193.82 161.404 195.811 157.921L196.35 157.058C198.362 153.59 200 147.524 200 143.539V24.9352C200 20.8368 197.145 15.7948 193.628 13.6917Z" fill="#812627"/>
</svg>
