<svg width="186" height="34" viewBox="0 0 186 34" fill="none" xmlns="http://www.w3.org/2000/svg">
<g clip-path="url(#clip0_1_205)">
<path d="M185.048 23.9006C184.668 24.3143 184.154 24.5202 183.505 24.5202C182.858 24.5202 182.345 24.3152 181.965 23.9044C181.584 23.4936 181.395 22.9496 181.395 22.2733C181.395 21.5981 181.584 21.0531 181.963 20.6395C182.342 20.2267 182.857 20.0199 183.505 20.0199C184.154 20.0199 184.668 20.2258 185.048 20.6385C185.429 21.0503 185.619 21.5933 185.619 22.2667C185.619 22.943 185.429 23.4879 185.048 23.9006ZM185.764 21.2477C185.647 20.9322 185.484 20.6621 185.275 20.4373C185.065 20.2126 184.808 20.036 184.503 19.9075C184.199 19.7791 183.866 19.7148 183.505 19.7148C183.026 19.7148 182.6 19.8253 182.23 20.0445C181.86 20.2636 181.575 20.5667 181.374 20.9549C181.173 21.3421 181.072 21.7822 181.072 22.2733C181.072 22.7626 181.173 23.1998 181.374 23.5861C181.575 23.9705 181.86 24.2727 182.23 24.4909C182.6 24.7091 183.026 24.8177 183.505 24.8177C183.987 24.8177 184.414 24.7081 184.785 24.489C185.156 24.2699 185.441 23.9677 185.641 23.5823C185.841 23.197 185.941 22.7588 185.941 22.2667C185.941 21.9022 185.882 21.5622 185.764 21.2477Z" fill="#812627"/>
<path d="M182.972 22.2186V21.3119H183.702C183.875 21.3119 184.009 21.3506 184.1 21.429C184.194 21.5074 184.24 21.6198 184.24 21.7652C184.24 21.9126 184.194 22.025 184.1 22.1024C184.009 22.1798 183.875 22.2186 183.702 22.2186H182.972ZM184.439 22.2497C184.555 22.1232 184.613 21.957 184.613 21.7511C184.613 21.5093 184.538 21.3223 184.387 21.1901C184.237 21.0588 184.019 20.9927 183.736 20.9927H182.592V23.537H182.972V22.5368H183.54L184.284 23.537H184.733L183.952 22.4887C184.159 22.4566 184.322 22.3763 184.439 22.2497Z" fill="#812627"/>
<path d="M28.5384 12.5131L18.6271 16.238C18.0214 16.4618 16.9989 16.4618 16.3932 16.238L6.48196 12.5131C5.8819 12.2836 5.39307 11.5762 5.39307 10.9368V7.78806C5.39307 7.49245 5.49868 7.25351 5.69029 7.11562C5.88284 6.97773 6.1408 6.95601 6.4184 7.05423L15.0576 10.1171C15.7109 10.3485 16.7998 10.5355 17.4831 10.5355H17.5448C18.2317 10.5355 19.3169 10.3485 19.9628 10.1171L28.6019 7.05423C28.8795 6.95601 29.1375 6.97773 29.3301 7.11562C29.5217 7.25351 29.6273 7.49245 29.6273 7.78806V10.9368C29.6273 11.5791 29.1384 12.2865 28.5384 12.5131ZM5.68842 18.7531C5.80245 18.6709 5.93892 18.6303 6.08846 18.6303C6.19315 18.6303 6.30437 18.6501 6.4184 18.6907L15.0576 21.746C15.7109 21.9765 16.7998 22.1644 17.4831 22.1644H17.5448C18.2317 22.1644 19.3169 21.9765 19.9628 21.746L28.6019 18.6907C28.8795 18.5925 29.1384 18.6142 29.3319 18.7531C29.5217 18.8891 29.6273 19.1252 29.6273 19.417V22.5658C29.6273 23.2146 29.1394 23.922 28.5384 24.1421L18.6262 27.867C18.0214 28.0983 16.9989 28.0983 16.3942 27.867L6.48103 24.1411C5.89125 23.923 5.39307 23.2014 5.39307 22.5658V19.417C5.39307 19.1252 5.49868 18.8891 5.68842 18.7531ZM33.9118 1.36773L32.1771 0.339231C31.5742 -0.0253242 30.5433 -0.10938 29.8787 0.152231L18.6178 4.58734C18.0065 4.82818 17.0129 4.82818 16.4026 4.58734L5.14164 0.152231C4.48176 -0.107491 3.45082 -0.0243797 2.84421 0.339231L1.10852 1.36773C0.497247 1.73323 0 2.61723 0 3.3369V24.109C0 24.8211 0.286945 25.8836 0.639317 26.4767L0.723437 26.6241C1.07581 27.2398 1.89272 27.9491 2.54138 28.2051L15.0679 33.3258C15.7016 33.5837 16.7849 33.7933 17.4831 33.7933H17.5448C18.2383 33.7933 19.3188 33.5837 19.9515 33.3258L32.4855 28.2051C33.1323 27.9472 33.9455 27.238 34.2941 26.6278L34.3885 26.4767C34.7409 25.8695 35.0278 24.807 35.0278 24.109V3.3369C35.0278 2.61912 34.5278 1.73606 33.9118 1.36773Z" fill="#812627"/>
<path d="M54.6236 1.82373H44.7488C44.3375 1.82373 44.002 2.16279 44.002 2.57834V6.11623C44.002 6.53273 44.3375 6.87084 44.7488 6.87084H46.4003C46.6779 6.87084 46.9041 7.0994 46.9041 7.38084V18.7378C46.9041 19.0192 46.6779 19.2468 46.4003 19.2468H44.7488C44.3375 19.2468 44.002 19.5859 44.002 20.0024V23.5403C44.002 23.9558 44.3375 24.2949 44.7488 24.2949H54.6236C55.0358 24.2949 55.3704 23.9558 55.3704 23.5403V20.0024C55.3704 19.5859 55.0358 19.2468 54.6236 19.2468H53.0141C52.7355 19.2468 52.5094 19.0192 52.5094 18.7378V7.38084C52.5094 7.0994 52.7355 6.87084 53.0141 6.87084H54.6236C55.0358 6.87084 55.3704 6.53273 55.3704 6.11623V2.57834C55.3704 2.16279 55.0358 1.82373 54.6236 1.82373Z" fill="#812627"/>
<path d="M78.3802 1.82422H61.2533C60.8364 1.82422 60.498 2.16611 60.498 2.58733V6.10916C60.498 6.52944 60.8364 6.87227 61.2533 6.87227H73.6358C73.9041 6.87227 74.1396 7.013 74.1396 7.1745C74.1396 7.34261 73.9415 7.64577 73.6573 7.81294L61.1047 15.1909C60.7644 15.3912 60.498 15.8587 60.498 16.2563V23.5323C60.498 23.9535 60.8364 24.2954 61.2533 24.2954H78.3802C78.7971 24.2954 79.1354 23.9535 79.1354 23.5323V20.0104C79.1354 19.5892 78.7971 19.2473 78.3802 19.2473H65.9967C65.6846 19.2473 65.4929 19.1217 65.4929 19.0537C65.4929 18.9527 65.6808 18.6958 65.9752 18.5229L78.5288 11.144C78.8691 10.9438 79.1354 10.4763 79.1354 10.0787V2.58733C79.1354 2.16611 78.7971 1.82422 78.3802 1.82422Z" fill="#812627"/>
<path d="M93.214 6.56635C96.8976 6.56635 98.9268 8.86608 98.9268 13.0405C98.9268 17.2414 96.8976 19.5544 93.214 19.5544C89.5099 19.5544 87.4695 17.2414 87.4695 13.0405C87.4695 8.92652 89.5632 6.56635 93.214 6.56635ZM93.214 1.51074C86.4255 1.51074 81.8652 6.14419 81.8652 13.0405C81.8652 19.9557 86.4255 24.6015 93.214 24.6015C99.9839 24.6015 104.532 19.9557 104.532 13.0405C104.532 6.2528 99.8773 1.51074 93.214 1.51074Z" fill="#812627"/>
<path d="M144.874 2.05417C144.768 1.90779 144.59 1.82373 144.385 1.82373H140.429C140.033 1.82373 139.605 2.13162 139.474 2.5094L133.864 18.7321C133.759 19.0353 133.514 19.2468 133.358 19.2468C133.211 19.2468 133.003 19.0334 132.943 18.7255L129.77 2.55001C129.692 2.14956 129.299 1.82373 128.894 1.82373H120.916C120.512 1.82373 120.119 2.14956 120.04 2.55001L116.867 18.7255C116.806 19.0334 116.6 19.2468 116.451 19.2468C116.297 19.2468 116.051 19.0353 115.945 18.7321L110.337 2.5094C110.204 2.12501 109.784 1.82373 109.38 1.82373H105.426C105.219 1.82373 105.042 1.90779 104.936 2.05417C104.831 2.20056 104.807 2.39795 104.871 2.59534L111.641 23.6026C111.765 23.9842 112.188 24.2949 112.585 24.2949H120.318C120.722 24.2949 121.116 23.97 121.197 23.5705L124.484 7.39312C124.546 7.08617 124.756 6.87179 124.905 6.87179C125.054 6.87179 125.263 7.08617 125.326 7.39312L128.612 23.5705C128.694 23.97 129.089 24.2949 129.492 24.2949H137.225C137.622 24.2949 138.046 23.9842 138.169 23.6026L144.939 2.59534C145.003 2.39795 144.978 2.20056 144.874 2.05417Z" fill="#812627"/>
<path d="M152.024 13.3851L153.983 7.39074C154.082 7.08474 154.332 6.87035 154.496 6.87035C154.666 6.87035 154.916 7.08002 155.017 7.39169L156.968 13.3851C157.006 13.5041 156.997 13.6127 156.94 13.693C156.883 13.7733 156.781 13.8177 156.655 13.8177H152.343C152.214 13.8177 152.112 13.7724 152.053 13.6892C151.995 13.6099 151.985 13.5013 152.024 13.3851ZM158.957 2.50796C158.821 2.12358 158.403 1.82324 158.006 1.82324H150.986C150.59 1.82324 150.166 2.13113 150.041 2.50985L143.023 23.5209C142.954 23.7202 142.974 23.9195 143.078 24.0668C143.181 24.2141 143.359 24.2982 143.566 24.2982H147.754C148.159 24.2982 148.574 23.9922 148.699 23.6031L150.072 19.3861C150.163 19.1037 150.486 18.8657 150.778 18.8657H158.244C158.536 18.8657 158.859 19.1037 158.95 19.3861L160.33 23.6021C160.456 23.9922 160.871 24.2982 161.276 24.2982H165.456C165.664 24.2982 165.837 24.217 165.944 24.0687C166.05 23.9204 166.073 23.7268 166.007 23.5219L158.957 2.50796Z" fill="#812627"/>
<path d="M185.032 2.0504C184.947 1.90684 184.778 1.82373 184.568 1.82373H180.065C179.669 1.82373 179.217 2.10329 179.037 2.45934L174.552 11.2993C174.447 11.5052 174.306 11.5052 174.202 11.2993L169.717 2.45934C169.536 2.10329 169.084 1.82373 168.688 1.82373H164.186C163.975 1.82373 163.806 1.90684 163.721 2.0504C163.637 2.19395 163.646 2.38379 163.747 2.57079L171.272 16.4928C171.427 16.78 171.558 17.2985 171.558 17.6262V23.5318C171.558 23.953 171.897 24.2949 172.313 24.2949H176.409C176.825 24.2949 177.164 23.953 177.164 23.5318V17.6271C177.164 17.2994 177.295 16.7809 177.451 16.4938L185.004 2.56984C185.106 2.38379 185.116 2.19395 185.032 2.0504Z" fill="#812627"/>
</g>
<defs>
<clipPath id="clip0_1_205">
<rect width="186" height="34" fill="white"/>
</clipPath>
</defs>
</svg>
