<svg width="34" height="34" viewBox="0 0 34 34" fill="none" xmlns="http://www.w3.org/2000/svg">
<path d="M2.125 31.5714C2.125 32.9147 3.07461 34 4.25 34H14.875V21.8571H2.125V31.5714ZM19.125 34H29.75C30.9254 34 31.875 32.9147 31.875 31.5714V21.8571H19.125V34ZM31.875 9.71429H29.0793C29.491 8.79598 29.75 7.77902 29.75 6.67857C29.75 2.99777 27.127 0 23.9062 0C21.1438 0 19.3574 1.61652 17.0664 5.18348C14.7754 1.61652 12.9891 0 10.2266 0C7.00586 0 4.38281 2.99777 4.38281 6.67857C4.38281 7.77902 4.63516 8.79598 5.05352 9.71429H2.125C0.949609 9.71429 0 10.7996 0 12.1429V18.2143C0 18.8821 0.478125 19.4286 1.0625 19.4286H32.9375C33.5219 19.4286 34 18.8821 34 18.2143V12.1429C34 10.7996 33.0504 9.71429 31.875 9.71429ZM10.2199 9.71429C8.75234 9.71429 7.56367 8.3558 7.56367 6.67857C7.56367 5.00134 8.75234 3.64286 10.2199 3.64286C11.5414 3.64286 12.5176 3.8933 15.9375 9.71429H10.2199ZM23.9062 9.71429H18.1887C21.602 3.90848 22.5516 3.64286 23.9062 3.64286C25.3738 3.64286 26.5625 5.00134 26.5625 6.67857C26.5625 8.3558 25.3738 9.71429 23.9062 9.71429Z" fill="#E05310"/>
</svg>
