<svg width="19" height="18" viewBox="0 0 19 18" fill="none" xmlns="http://www.w3.org/2000/svg">
<path d="M17.8516 13.9922L12.8594 9L17.8516 4.00781C18.4641 3.39523 18.4641 2.40165 17.8516 1.78906L16.7422 0.679687C16.1296 0.0671045 15.136 0.0671045 14.5234 0.679687L9.53125 5.67187L4.53906 0.679687C3.92648 0.0671045 2.9329 0.0671045 2.32031 0.679687L1.21094 1.78906C0.598355 2.40165 0.598355 3.39523 1.21094 4.00781L6.20313 9L1.21094 13.9922C0.598355 14.6048 0.598355 15.5984 1.21094 16.2109L2.32031 17.3203C2.9329 17.9329 3.92648 17.9329 4.53906 17.3203L9.53125 12.3281L14.5234 17.3203C15.136 17.9329 16.1296 17.9329 16.7422 17.3203L17.8516 16.2109C18.4641 15.5984 18.4641 14.6048 17.8516 13.9922Z" fill="white"/>
</svg>
