<svg width="15" height="19" viewBox="0 0 15 19" fill="none" xmlns="http://www.w3.org/2000/svg">
<path d="M8.75 5.04688V0H0.9375C0.417969 0 0 0.39707 0 0.890625V18.1094C0 18.6029 0.417969 19 0.9375 19H14.0625C14.582 19 15 18.6029 15 18.1094V5.9375H9.6875C9.17188 5.9375 8.75 5.53672 8.75 5.04688ZM11.25 13.8047C11.25 14.0496 11.0391 14.25 10.7812 14.25H4.21875C3.96094 14.25 3.75 14.0496 3.75 13.8047V13.5078C3.75 13.2629 3.96094 13.0625 4.21875 13.0625H10.7812C11.0391 13.0625 11.25 13.2629 11.25 13.5078V13.8047ZM11.25 11.4297C11.25 11.6746 11.0391 11.875 10.7812 11.875H4.21875C3.96094 11.875 3.75 11.6746 3.75 11.4297V11.1328C3.75 10.8879 3.96094 10.6875 4.21875 10.6875H10.7812C11.0391 10.6875 11.25 10.8879 11.25 11.1328V11.4297ZM11.25 8.75781V9.05469C11.25 9.29961 11.0391 9.5 10.7812 9.5H4.21875C3.96094 9.5 3.75 9.29961 3.75 9.05469V8.75781C3.75 8.51289 3.96094 8.3125 4.21875 8.3125H10.7812C11.0391 8.3125 11.25 8.51289 11.25 8.75781ZM15 4.52363V4.75H10V0H10.2383C10.4883 0 10.7266 0.0927734 10.9023 0.259766L14.7266 3.89648C14.9023 4.06348 15 4.28984 15 4.52363Z" fill="#E05310"/>
</svg>
