<svg width="32" height="29" viewBox="0 0 32 29" fill="none" xmlns="http://www.w3.org/2000/svg">
<path d="M1.14286 5.32653H30.8571C31.4884 5.32653 32 4.79661 32 4.14286V1.18367C32 0.529916 31.4884 0 30.8571 0H1.14286C0.511643 0 0 0.529916 0 1.18367V4.14286C0 4.79661 0.511643 5.32653 1.14286 5.32653ZM1.14286 17.1633H30.8571C31.4884 17.1633 32 16.6333 32 15.9796V13.0204C32 12.3666 31.4884 11.8367 30.8571 11.8367H1.14286C0.511643 11.8367 0 12.3666 0 13.0204V15.9796C0 16.6333 0.511643 17.1633 1.14286 17.1633ZM1.14286 29H30.8571C31.4884 29 32 28.4701 32 27.8163V24.8571C32 24.2034 31.4884 23.6735 30.8571 23.6735H1.14286C0.511643 23.6735 0 24.2034 0 24.8571V27.8163C0 28.4701 0.511643 29 1.14286 29Z" fill="white"/>
</svg>
