<svg width="19" height="19" viewBox="0 0 19 19" fill="none" xmlns="http://www.w3.org/2000/svg">
<path d="M16.625 4.52515V4.75H11.875V0H12.0998C12.336 1.23499e-06 12.5626 0.0938283 12.7296 0.260842L16.3641 3.89537C16.5312 4.0624 16.625 4.28894 16.625 4.52515ZM11.5781 5.9375C11.0883 5.9375 10.6875 5.53672 10.6875 5.04688V0H3.26562C2.77374 0 2.375 0.39874 2.375 0.890625V18.1094C2.375 18.6013 2.77374 19 3.26562 19H15.7344C16.2263 19 16.625 18.6013 16.625 18.1094V5.9375H11.5781ZM6.55147 6.53125C7.53524 6.53125 8.33272 7.32873 8.33272 8.3125C8.33272 9.29627 7.53524 10.0938 6.55147 10.0938C5.5677 10.0938 4.77022 9.29627 4.77022 8.3125C4.77022 7.32873 5.56774 6.53125 6.55147 6.53125ZM14.2702 15.4375H4.77022L4.78822 13.6383L6.2546 12.1719C6.42849 11.998 6.69245 12.016 6.86635 12.1899L8.33272 13.6562L12.1741 9.81487C12.348 9.64098 12.63 9.64098 12.8039 9.81487L14.2702 11.2812V15.4375Z" fill="#E05310"/>
</svg>
