<svg width="29" height="25" viewBox="0 0 29 25" fill="none" xmlns="http://www.w3.org/2000/svg">
<path d="M26.2812 12.5H21.75V8.92857C21.75 6.95871 23.3756 5.35714 25.375 5.35714H25.8281C26.5814 5.35714 27.1875 4.76004 27.1875 4.01786V1.33929C27.1875 0.597098 26.5814 0 25.8281 0H25.375C20.368 0 16.3125 3.99554 16.3125 8.92857V22.3214C16.3125 23.8002 17.5303 25 19.0312 25H26.2812C27.7822 25 29 23.8002 29 22.3214V15.1786C29 13.6998 27.7822 12.5 26.2812 12.5ZM9.96875 12.5H5.4375V8.92857C5.4375 6.95871 7.06309 5.35714 9.0625 5.35714H9.51562C10.2689 5.35714 10.875 4.76004 10.875 4.01786V1.33929C10.875 0.597098 10.2689 0 9.51562 0H9.0625C4.05547 0 0 3.99554 0 8.92857V22.3214C0 23.8002 1.21777 25 2.71875 25H9.96875C11.4697 25 12.6875 23.8002 12.6875 22.3214V15.1786C12.6875 13.6998 11.4697 12.5 9.96875 12.5Z" fill="#200000" fill-opacity="0.1"/>
</svg>
