<svg width="15" height="15" viewBox="0 0 15 15" fill="none" xmlns="http://www.w3.org/2000/svg">
<g clip-path="url(#clip0_1_2650)">
<path d="M0 1.64062V8.67188C0 9.06021 0.314795 9.375 0.703125 9.375H3.04687C3.4352 9.375 3.75 9.06021 3.75 8.67188V1.64062C3.75 1.25229 3.4352 0.9375 3.04687 0.9375H0.703125C0.314795 0.9375 0 1.25229 0 1.64062ZM1.17187 7.5C1.17187 7.11167 1.48667 6.79688 1.875 6.79688C2.26333 6.79688 2.57812 7.11167 2.57812 7.5C2.57812 7.88833 2.26333 8.20312 1.875 8.20312C1.48667 8.20312 1.17187 7.88833 1.17187 7.5ZM9.14062 15C8.54933 15 8.27681 13.8488 8.14655 13.3068C7.99403 12.672 7.83633 12.0157 7.40262 11.5811C6.45138 10.6283 5.95233 9.41414 4.79177 8.26734C4.75874 8.2347 4.73252 8.19582 4.71463 8.15297C4.69674 8.11012 4.68753 8.06414 4.68753 8.0177V1.75491C4.68753 1.56328 4.84113 1.40692 5.03273 1.40341C5.49653 1.39491 6.10775 1.13742 6.57524 0.929443C7.50554 0.515566 8.66335 0.000498047 10.078 0H10.1613C11.4145 0 12.8965 0.0120996 13.4945 0.871201C13.7404 1.22443 13.8006 1.66321 13.6746 2.17878C14.1525 2.67838 14.4089 3.61031 14.1546 4.36893C14.6686 5.05541 14.7154 6.01342 14.4273 6.69712L14.4305 6.70034C14.7789 7.05041 15.0025 7.61613 15 8.14166C14.9954 9.03088 14.2337 9.84375 13.2553 9.84375H10.2751C10.4892 10.674 11.25 11.3711 11.25 12.6137C11.25 14.7656 9.84375 15 9.14062 15Z" fill="#B3B3B3"/>
</g>
<defs>
<clipPath id="clip0_1_2650">
<rect width="15" height="15" fill="white"/>
</clipPath>
</defs>
</svg>
