<svg width="15" height="19" viewBox="0 0 15 19" fill="none" xmlns="http://www.w3.org/2000/svg">
<path d="M15 4.52515V4.75H10V0H10.2367C10.4853 0 10.7238 0.0938496 10.8996 0.260842L14.7254 3.89537C14.9012 4.06241 15 4.28895 15 4.52515ZM8.75 5.04688V0H0.9375C0.419727 0 0 0.39874 0 0.890625V18.1094C0 18.6013 0.419727 19 0.9375 19H14.0625C14.5803 19 15 18.6013 15 18.1094V5.9375H9.6875C9.17188 5.9375 8.75 5.53672 8.75 5.04688ZM12.5 10.3912V14.5461C12.5 15.3419 11.4866 15.7335 10.8996 15.1759L8.75 13.1345V14.5469C8.75 15.0388 8.33027 15.4375 7.8125 15.4375H3.4375C2.91973 15.4375 2.5 15.0388 2.5 14.5469V10.3906C2.5 9.89874 2.91973 9.5 3.4375 9.5H7.8125C8.33027 9.5 8.75 9.89874 8.75 10.3906V11.803L10.8996 9.76147C11.4859 9.20446 12.5 9.59481 12.5 10.3912Z" fill="#E05310"/>
</svg>
