<svg width="43" height="57" viewBox="0 0 43 57" fill="none" xmlns="http://www.w3.org/2000/svg">
<path d="M25.0833 15.1406V0H2.6875C1.19818 0 0 1.19121 0 2.67188V54.3281C0 55.8088 1.19818 57 2.6875 57H40.3125C41.8018 57 43 55.8088 43 54.3281V17.8125H27.7708C26.2927 17.8125 25.0833 16.6102 25.0833 15.1406ZM31.8133 26.9971L25.0833 37.4062L31.8133 47.8154C32.3844 48.7061 31.7461 49.875 30.6823 49.875H26.7742C26.2815 49.875 25.8224 49.6078 25.5872 49.1736C23.3924 45.1436 21.5 41.5254 21.5 41.5254C20.7833 43.173 20.3802 43.752 17.4016 49.1848C17.1664 49.6189 16.7185 49.8861 16.2258 49.8861H12.3177C11.2539 49.8861 10.6156 48.7172 11.1867 47.8266L17.9391 37.4174L11.1867 27.0082C10.6044 26.1176 11.2539 24.9486 12.3177 24.9486H16.2146C16.7073 24.9486 17.1664 25.2158 17.4016 25.65C20.3242 31.0828 19.6411 29.3906 21.5 33.276C21.5 33.276 22.1831 31.9734 25.5984 25.65C25.8336 25.2158 26.2927 24.9486 26.7854 24.9486H30.6823C31.7461 24.9375 32.3844 26.1064 31.8133 26.9971ZM43 13.5709V14.25H28.6667V0H29.3497C30.0664 0 30.7495 0.27832 31.2534 0.779297L42.2161 11.6895C42.7201 12.1904 43 12.8695 43 13.5709Z" fill="#F89630"/>
</svg>
