<svg width="12" height="12" viewBox="0 0 12 12" fill="none" xmlns="http://www.w3.org/2000/svg">
<path d="M6 0C2.68548 0 0 2.68548 0 6C0 9.31452 2.68548 12 6 12C9.31452 12 12 9.31452 12 6C12 2.68548 9.31452 0 6 0ZM8.94677 4.11048L7.9621 8.75081C7.88952 9.07984 7.69355 9.15968 7.42016 9.00484L5.92016 7.89919L5.19677 8.59597C5.11694 8.67581 5.04919 8.74355 4.89435 8.74355L5.00081 7.21693L7.78065 4.70565C7.90161 4.59919 7.75403 4.53871 7.59435 4.64516L4.15887 6.80806L2.67823 6.34597C2.35645 6.24435 2.34919 6.02419 2.74597 5.86935L8.53065 3.63871C8.79919 3.54194 9.03387 3.70403 8.94677 4.11048V4.11048Z" fill="white"/>
</svg>
