<svg width="29" height="32" viewBox="0 0 29 32" fill="none" xmlns="http://www.w3.org/2000/svg">
<path d="M25.7296 3.116C24.9712 2.38484 21.9013 0.0538864 15.057 0.0226403C15.057 0.0226403 6.98831 -0.483546 3.05848 3.29098C0.872588 5.57819 0.102151 8.93402 0.0185372 13.0897C-0.0650761 17.2455 -0.166607 25.032 7.00622 27.1442H7.0122L7.00622 30.3688C7.00622 30.3688 6.95845 31.6749 7.78263 31.9374C8.77405 32.2623 9.35934 31.2687 10.309 30.2001C10.8286 29.6127 11.5452 28.7503 12.0887 28.0941C16.998 28.5253 20.7666 27.5379 21.1966 27.3942C22.188 27.0567 27.7961 26.3068 28.7039 18.5203C29.6475 10.4838 28.25 5.40946 25.7296 3.116V3.116ZM26.5598 17.9329C25.7894 24.4321 21.2444 24.8445 20.4083 25.1257C20.0499 25.2445 16.7352 26.1069 12.5725 25.8256C12.5725 25.8256 9.46685 29.7439 8.49932 30.7625C8.18278 31.0937 7.83639 31.0625 7.84236 30.4063C7.84236 29.9751 7.86625 25.0507 7.86625 25.0507C7.86028 25.0507 7.86028 25.0507 7.86625 25.0507C1.78636 23.2885 2.14471 16.6581 2.2104 13.1897C2.2761 9.72142 2.9032 6.87803 4.75464 4.96577C8.08125 1.80992 14.9316 2.27861 14.9316 2.27861C20.7188 2.3036 23.49 4.12837 24.135 4.7408C26.2672 6.65306 27.3541 11.2275 26.5598 17.9329V17.9329ZM18.2582 12.8835C18.2821 13.421 17.5116 13.4585 17.4878 12.921C17.4221 11.5462 16.8069 10.8775 15.5408 10.8025C15.0271 10.7713 15.0749 9.96514 15.5826 9.99639C17.2489 10.0901 18.1746 11.09 18.2582 12.8835ZM19.4706 13.5897C19.5303 10.94 17.9476 8.86528 14.9435 8.63406C14.4359 8.59656 14.4896 7.79041 14.9973 7.82791C18.4613 8.09038 20.3067 10.5838 20.241 13.6084C20.2351 14.1459 19.4586 14.1209 19.4706 13.5897V13.5897ZM22.2776 14.4271C22.2836 14.9645 21.5072 14.9708 21.5072 14.4333C21.4713 9.34022 18.2283 6.56557 14.2925 6.53432C13.7849 6.52807 13.7849 5.72817 14.2925 5.72817C18.6942 5.75942 22.2358 8.94027 22.2776 14.4271V14.4271ZM21.6027 20.5576V20.5701C20.9577 21.7574 19.7513 23.0697 18.509 22.651L18.4971 22.6323C17.2369 22.2636 14.2686 20.6638 12.3933 19.1015C11.4258 18.3016 10.5419 17.358 9.86102 16.4518C9.24587 15.6457 8.62474 14.6895 8.02153 13.5397C6.74941 11.1337 6.46871 10.0589 6.46871 10.0589C6.06856 8.75904 7.31679 7.4967 8.45751 6.82179H8.46946C9.01892 6.52182 9.54449 6.62181 9.89686 7.06551C9.89686 7.06551 10.6374 7.99039 10.954 8.44658C11.2526 8.87153 11.6527 9.55269 11.8618 9.9339C12.2261 10.6151 11.9991 11.3087 11.6408 11.5962L10.9241 12.1961C10.5598 12.5023 10.6076 13.071 10.6076 13.071C10.6076 13.071 11.6707 17.2767 15.6423 18.3391C15.6423 18.3391 16.1858 18.3891 16.4784 18.0079L17.0518 17.258C17.3265 16.883 17.9894 16.6456 18.6404 17.0268C19.5184 17.5454 20.6352 18.3516 21.3758 19.0827C21.7938 19.4389 21.8894 19.9826 21.6027 20.5576Z" fill="#812627"/>
</svg>
