<svg width="11" height="12" viewBox="0 0 11 12" fill="none" xmlns="http://www.w3.org/2000/svg">
<path d="M9.75952 1.1685C9.47182 0.894316 8.30741 0.0202074 5.71127 0.00849013C5.71127 0.00849013 2.65074 -0.18133 1.16011 1.23412C0.330982 2.09182 0.0387468 3.35026 0.00703136 4.90866C-0.0246841 6.46705 -0.0631957 9.387 2.65753 10.1791H2.6598L2.65753 11.3883C2.65753 11.3883 2.63941 11.8781 2.95203 11.9765C3.32809 12.0984 3.5501 11.7258 3.91029 11.325C4.10738 11.1048 4.37923 10.7814 4.58538 10.5353C6.44753 10.697 7.87699 10.3267 8.04009 10.2728C8.41615 10.1463 10.5433 9.86506 10.8877 6.94512C11.2456 3.93143 10.7155 2.02855 9.75952 1.1685V1.1685ZM10.0744 6.72483C9.78217 9.16203 8.05822 9.3167 7.74106 9.42215C7.60514 9.46668 6.34785 9.79007 4.76887 9.68462C4.76887 9.68462 3.59087 11.154 3.22388 11.5359C3.10381 11.6602 2.97242 11.6484 2.97469 11.4024C2.97469 11.2407 2.98375 9.39403 2.98375 9.39403C2.98148 9.39403 2.98148 9.39403 2.98375 9.39403C0.677586 8.73317 0.813509 6.24677 0.838428 4.94615C0.863348 3.64553 1.10121 2.57926 1.80348 1.86216C3.0653 0.678718 5.6637 0.854478 5.6637 0.854478C7.85886 0.863851 8.91 1.54814 9.15466 1.7778C9.96341 2.4949 10.3757 4.21031 10.0744 6.72483V6.72483ZM6.92552 4.83132C6.93458 5.03286 6.64235 5.04692 6.63329 4.84538C6.60837 4.32982 6.37503 4.07907 5.89477 4.05095C5.69995 4.03923 5.71807 3.73693 5.91063 3.74865C6.54267 3.7838 6.89381 4.15875 6.92552 4.83132ZM7.3854 5.09613C7.40805 4.10251 6.80772 3.32448 5.66823 3.23777C5.47567 3.22371 5.49606 2.92141 5.68862 2.93547C7.00255 3.03389 7.70255 3.96893 7.67763 5.10316C7.67537 5.3047 7.38087 5.29533 7.3854 5.09613V5.09613ZM8.45013 5.41016C8.45239 5.61169 8.15789 5.61404 8.15789 5.4125C8.1443 3.50258 6.9142 2.46209 5.42131 2.45037C5.22875 2.44803 5.22875 2.14806 5.42131 2.14806C7.0909 2.15978 8.43427 3.3526 8.45013 5.41016V5.41016ZM8.19414 7.70908V7.71377C7.94948 8.15903 7.49187 8.65115 7.02067 8.49414L7.01614 8.48711C6.53814 8.34885 5.41224 7.74892 4.70091 7.16306C4.33392 6.8631 3.99864 6.50924 3.74039 6.16943C3.50705 5.86713 3.27145 5.50858 3.04265 5.07738C2.56012 4.17515 2.45365 3.77208 2.45365 3.77208C2.30187 3.28464 2.77533 2.81126 3.20802 2.55817H3.21255C3.42097 2.44568 3.62032 2.48318 3.75398 2.64956C3.75398 2.64956 4.03489 2.9964 4.15495 3.16747C4.26822 3.32682 4.42 3.58226 4.49929 3.72521C4.63748 3.98065 4.5514 4.24077 4.41547 4.34857L4.14363 4.57354C4.00544 4.68837 4.02356 4.90163 4.02356 4.90163C4.02356 4.90163 4.4268 6.47877 5.93328 6.87716C5.93328 6.87716 6.13943 6.89591 6.25044 6.75296L6.46791 6.47174C6.57212 6.33113 6.82358 6.24208 7.07051 6.38503C7.40352 6.57954 7.82715 6.88184 8.10805 7.15603C8.26663 7.28961 8.30288 7.49349 8.19414 7.70908Z" fill="white"/>
</svg>
