<svg width="11" height="11" viewBox="0 0 11 11" fill="none" xmlns="http://www.w3.org/2000/svg">
<path d="M9.35246 1.59844C8.32366 0.567187 6.95357 0 5.49754 0C2.49219 0 0.0466518 2.44554 0.0466518 5.45089C0.0466518 6.41094 0.297098 7.34888 0.773437 8.17634L0 11L2.88996 10.2413C3.68549 10.6759 4.5817 10.9042 5.49509 10.9042H5.49754C8.50045 10.9042 11 8.45871 11 5.45335C11 3.99732 10.3812 2.62969 9.35246 1.59844V1.59844ZM5.49754 9.98594C4.68237 9.98594 3.88437 9.76741 3.18951 9.35491L3.025 9.2567L1.31116 9.70603L1.76786 8.03393L1.65982 7.86205C1.20558 7.14018 0.967411 6.30781 0.967411 5.45089C0.967411 2.95379 3.00045 0.920759 5.5 0.920759C6.71049 0.920759 7.84732 1.39219 8.70179 2.24911C9.55625 3.10603 10.0817 4.24286 10.0792 5.45335C10.0792 7.9529 7.99464 9.98594 5.49754 9.98594V9.98594ZM7.98237 6.59263C7.84732 6.52388 7.17701 6.19487 7.05179 6.15067C6.92656 6.10402 6.83571 6.08192 6.74487 6.21942C6.65402 6.35692 6.39375 6.66138 6.31272 6.75469C6.23415 6.84554 6.15313 6.85781 6.01808 6.78906C5.21763 6.38884 4.69219 6.07455 4.16429 5.16853C4.02433 4.9279 4.30424 4.94509 4.56451 4.42455C4.60871 4.33371 4.58661 4.25513 4.55223 4.18638C4.51786 4.11763 4.24531 3.44732 4.13237 3.17478C4.02187 2.9096 3.90893 2.94643 3.82545 2.94152C3.74687 2.93661 3.65603 2.93661 3.56518 2.93661C3.47433 2.93661 3.32701 2.97098 3.20179 3.10603C3.07656 3.24353 2.72545 3.57254 2.72545 4.24286C2.72545 4.91317 3.21406 5.56138 3.28036 5.65223C3.34911 5.74308 4.2404 7.11808 5.60804 7.70982C6.47232 8.08304 6.81116 8.11496 7.2433 8.05112C7.50603 8.01183 8.04866 7.7221 8.16161 7.4029C8.27455 7.08371 8.27455 6.81116 8.24018 6.75469C8.20826 6.6933 8.11741 6.65893 7.98237 6.59263Z" fill="white"/>
</svg>
