<svg width="43" height="57" viewBox="0 0 43 57" fill="none" xmlns="http://www.w3.org/2000/svg">
<path d="M25.0833 15.1406V0H2.6875C1.19818 0 0 1.19121 0 2.67188V54.3281C0 55.8088 1.19818 57 2.6875 57H40.3125C41.8018 57 43 55.8088 43 54.3281V17.8125H27.7708C26.2927 17.8125 25.0833 16.6102 25.0833 15.1406ZM32.25 41.4141C32.25 42.1488 31.6453 42.75 30.9062 42.75H12.0938C11.3547 42.75 10.75 42.1488 10.75 41.4141V40.5234C10.75 39.7887 11.3547 39.1875 12.0938 39.1875H30.9062C31.6453 39.1875 32.25 39.7887 32.25 40.5234V41.4141ZM32.25 34.2891C32.25 35.0238 31.6453 35.625 30.9062 35.625H12.0938C11.3547 35.625 10.75 35.0238 10.75 34.2891V33.3984C10.75 32.6637 11.3547 32.0625 12.0938 32.0625H30.9062C31.6453 32.0625 32.25 32.6637 32.25 33.3984V34.2891ZM32.25 26.2734V27.1641C32.25 27.8988 31.6453 28.5 30.9062 28.5H12.0938C11.3547 28.5 10.75 27.8988 10.75 27.1641V26.2734C10.75 25.5387 11.3547 24.9375 12.0938 24.9375H30.9062C31.6453 24.9375 32.25 25.5387 32.25 26.2734ZM43 13.5709V14.25H28.6667V0H29.3497C30.0664 0 30.7495 0.27832 31.2534 0.779297L42.2161 11.6895C42.7201 12.1904 43 12.8695 43 13.5709Z" fill="#F89630"/>
</svg>
